<svg width="16" height="16" viewBox="0 0 16 16" fill="none" xmlns="http://www.w3.org/2000/svg">
<mask id="mask0_1_1426" style="mask-type:alpha" maskUnits="userSpaceOnUse" x="0" y="0" width="16" height="16">
<rect width="16" height="16" fill="#D9D9D9"/>
</mask>
<g mask="url(#mask0_1_1426)">
<path d="M10.2167 10.85C10.0944 10.7056 10.0333 10.5417 10.0333 10.3583C10.0333 10.175 10.0944 10.0222 10.2167 9.9L11.45 8.66667H6.66667C6.47778 8.66667 6.31944 8.60278 6.19167 8.475C6.06389 8.34722 6 8.18889 6 8C6 7.81111 6.06389 7.65278 6.19167 7.525C6.31944 7.39722 6.47778 7.33333 6.66667 7.33333H11.45L10.2167 6.1C10.0833 5.96667 10.0167 5.80833 10.0167 5.625C10.0167 5.44167 10.0833 5.28333 10.2167 5.15C10.3389 5.01667 10.4917 4.95 10.675 4.95C10.8583 4.95 11.0111 5.01111 11.1333 5.13333L13.5333 7.53333C13.6 7.6 13.6472 7.67222 13.675 7.75C13.7028 7.82778 13.7167 7.91111 13.7167 8C13.7167 8.08889 13.7028 8.17222 13.675 8.25C13.6472 8.32778 13.6 8.4 13.5333 8.46667L11.1333 10.8667C10.9889 11.0111 10.8306 11.075 10.6583 11.0583C10.4861 11.0417 10.3389 10.9722 10.2167 10.85ZM3.33333 14C2.96667 14 2.65278 13.8694 2.39167 13.6083C2.13056 13.3472 2 13.0333 2 12.6667V3.33333C2 2.96667 2.13056 2.65278 2.39167 2.39167C2.65278 2.13056 2.96667 2 3.33333 2H7.33333C7.52222 2 7.68056 2.06389 7.80833 2.19167C7.93611 2.31944 8 2.47778 8 2.66667C8 2.85556 7.93611 3.01389 7.80833 3.14167C7.68056 3.26944 7.52222 3.33333 7.33333 3.33333H3.33333V12.6667H7.33333C7.52222 12.6667 7.68056 12.7306 7.80833 12.8583C7.93611 12.9861 8 13.1444 8 13.3333C8 13.5222 7.93611 13.6806 7.80833 13.8083C7.68056 13.9361 7.52222 14 7.33333 14H3.33333Z" fill="#AD6800"/>
</g>
</svg>
