<svg width="41" height="41" viewBox="0 0 41 41" fill="none" xmlns="http://www.w3.org/2000/svg">
<path d="M37.0522 23.2245H32.0518V29.9747L30.0514 28.4775L28.0522 29.9747V23.2245H23.0518C22.7869 23.2256 22.5332 23.3444 22.346 23.5551C22.1587 23.7657 22.0531 24.0512 22.0522 24.3491V37.8494C22.0531 38.1474 22.1587 38.4328 22.346 38.6434C22.5332 38.8541 22.7869 38.9729 23.0518 38.974H37.0522C37.317 38.9729 37.5707 38.8541 37.7579 38.6434C37.9452 38.4328 38.0508 38.1474 38.0518 37.8494V24.3491C38.0508 24.0512 37.9452 23.7657 37.7579 23.5551C37.5707 23.3444 37.317 23.2256 37.0522 23.2245ZM13.0522 18.7248H27.0514C27.3162 18.7238 27.5699 18.605 27.7571 18.3943C27.9444 18.1836 28.05 17.8982 28.051 17.6003V4.09993C28.0503 3.80176 27.9448 3.516 27.7576 3.30504C27.5703 3.09408 27.3164 2.97507 27.0514 2.974L22.0522 2.974V9.72417L20.0518 8.22698L18.0514 9.72417V2.974H13.0522C12.7873 2.97507 12.5336 3.09389 12.3464 3.30456C12.1591 3.51523 12.0535 3.80065 12.0526 4.09858V17.5989C12.0532 17.8971 12.1587 18.1828 12.346 18.3938C12.5333 18.6048 12.7871 18.7238 13.0522 18.7248ZM17.0518 23.2245H12.0514V29.9747L10.0522 28.4775L8.05176 29.9747V23.2245H3.05136C2.78654 23.2256 2.53284 23.3444 2.34558 23.5551C2.15833 23.7657 2.05271 24.0512 2.05176 24.3491V37.8494C2.05271 38.1474 2.15833 38.4328 2.34558 38.6434C2.53284 38.8541 2.78654 38.9729 3.05136 38.974H17.0518C17.3166 38.9729 17.5703 38.8541 17.7575 38.6434C17.9448 38.4328 18.0504 38.1474 18.0514 37.8494V24.3491C18.0504 24.0512 17.9448 23.7657 17.7575 23.5551C17.5703 23.3444 17.3166 23.2256 17.0518 23.2245Z" fill="#D48806"/>
</svg>
