<svg width="41" height="41" viewBox="0 0 41 41" fill="none" xmlns="http://www.w3.org/2000/svg">
<path d="M34.3785 24.1494H16.0562L16.4654 26.1183H33.2421C33.4673 26.1183 33.6896 26.1682 33.8926 26.2643C34.0956 26.3604 34.2739 26.5003 34.4145 26.6736C34.555 26.8468 34.6541 27.049 34.7043 27.2651C34.7546 27.4812 34.7548 27.7056 34.7049 27.9218L34.3605 29.4147C35.0304 29.7336 35.5797 30.2543 35.9287 30.9012C36.2777 31.5481 36.4082 32.2876 36.3013 33.0124C36.1944 33.7372 35.8557 34.4097 35.3343 34.9323C34.8128 35.4549 34.1358 35.8003 33.4014 35.9186C32.667 36.0369 31.9134 35.9218 31.2499 35.5901C30.5865 35.2584 30.0476 34.7273 29.7115 34.0738C29.3755 33.4203 29.2597 32.6784 29.3809 31.9558C29.5022 31.2332 29.8542 30.5673 30.3859 30.0549H17.2814C17.8055 30.5599 18.1552 31.2141 18.2811 31.9253C18.407 32.6364 18.3028 33.3685 17.9831 34.0182C17.6635 34.6679 17.1446 35.2023 16.4997 35.5461C15.8549 35.8899 15.1165 36.0257 14.389 35.9342C13.6615 35.8428 12.9816 35.5288 12.4452 35.0365C11.9088 34.5442 11.543 33.8985 11.3996 33.1906C11.2561 32.4827 11.3422 31.7483 11.6457 31.0912C11.9492 30.434 12.4547 29.8873 13.0909 29.5281L8.70111 8.40049H4.33294C3.9351 8.40049 3.55356 8.24495 3.27224 7.96807C2.99093 7.6912 2.83289 7.31567 2.83289 6.92411V5.94025C2.83289 5.54869 2.99093 5.17317 3.27224 4.89629C3.55356 4.61941 3.9351 4.46387 4.33294 4.46387H10.7412C11.087 4.4638 11.4222 4.58132 11.6901 4.79655C11.958 5.01178 12.1421 5.3115 12.2112 5.64497L12.7837 8.40168H37.333C37.5581 8.4017 37.7803 8.4516 37.9832 8.54766C38.1861 8.64372 38.3643 8.78349 38.5048 8.9566C38.6454 9.12971 38.7445 9.33173 38.7948 9.54767C38.8452 9.76361 38.8456 9.98795 38.7959 10.204L35.8414 23.0001C35.766 23.3265 35.5802 23.618 35.3144 23.8269C35.0486 24.0357 34.7186 24.1494 34.3785 24.1494ZM28.023 16.2749H25.3337V12.584C25.3337 12.3882 25.2547 12.2004 25.1141 12.062C24.9734 11.9236 24.7826 11.8458 24.5837 11.8458H23.0837C22.8847 11.8458 22.694 11.9236 22.5533 12.062C22.4127 12.2004 22.3336 12.3882 22.3336 12.584V16.2749H19.6443C19.496 16.2749 19.3509 16.3182 19.2276 16.3993C19.1042 16.4804 19.008 16.5957 18.9513 16.7306C18.8945 16.8655 18.8796 17.014 18.9086 17.1572C18.9375 17.3004 19.009 17.4319 19.1139 17.5352L23.3033 21.6584C23.3729 21.727 23.4556 21.7814 23.5466 21.8185C23.6376 21.8556 23.7352 21.8747 23.8337 21.8747C23.9322 21.8747 24.0297 21.8556 24.1208 21.8185C24.2118 21.7814 24.2945 21.727 24.3641 21.6584L28.5535 17.5352C28.6584 17.4319 28.7298 17.3004 28.7588 17.1572C28.7878 17.014 28.7729 16.8655 28.7161 16.7306C28.6593 16.5957 28.5632 16.4804 28.4398 16.3993C28.3165 16.3182 28.1714 16.2749 28.023 16.2749Z" fill="#D48806"/>
</svg>
