<svg width="16" height="16" viewBox="0 0 16 16" fill="none" xmlns="http://www.w3.org/2000/svg">
<mask id="mask0_1_1139" style="mask-type:alpha" maskUnits="userSpaceOnUse" x="0" y="0" width="16" height="16">
<rect width="16" height="16" fill="#D9D9D9"/>
</mask>
<g mask="url(#mask0_1_1139)">
<path d="M11.3333 6.85H4.66667V8.15H11.3333V6.85ZM12.6667 2.3H12V1H10.6667V2.3H5.33333V1H4V2.3H3.33333C3.15858 2.30009 2.98556 2.33383 2.82421 2.39927C2.66286 2.46472 2.51635 2.56058 2.39309 2.68137C2.26983 2.80215 2.17225 2.94547 2.10593 3.10312C2.03962 3.26076 2.00589 3.42962 2.00667 3.6L2 12.7C2 13.0448 2.14048 13.3754 2.39052 13.6192C2.64057 13.863 2.97971 14 3.33333 14H12.6667C13.02 13.999 13.3586 13.8618 13.6084 13.6182C13.8582 13.3746 13.999 13.0445 14 12.7V3.6C13.999 3.25551 13.8582 2.9254 13.6084 2.68181C13.3586 2.43822 13.02 2.30095 12.6667 2.3ZM12.6667 12.7H3.33333V5.55H12.6667V12.7ZM9.33333 9.45H4.66667V10.75H9.33333V9.45Z" fill="#AD6800"/>
</g>
</svg>
