<svg width="312" height="231" viewBox="0 0 312 231" fill="none" xmlns="http://www.w3.org/2000/svg">
<path d="M301.903 0H10.0971C4.52062 0 0 4.23862 0 9.46721V221.533C0 226.761 4.52062 231 10.0971 231H301.903C307.479 231 312 226.761 312 221.533V9.46721C312 4.23862 307.479 0 301.903 0Z" fill="#F5F5F5"/>
<path d="M40.8348 221.096C40.4935 221.096 40.1521 221.032 39.8108 220.904C39.4748 220.776 39.1735 220.589 38.9068 220.344L39.5788 219.536C39.7655 219.696 39.9735 219.827 40.2028 219.928C40.4321 220.029 40.6535 220.08 40.8668 220.08C41.1121 220.08 41.2935 220.035 41.4108 219.944C41.5335 219.853 41.5948 219.731 41.5948 219.576C41.5948 219.411 41.5255 219.291 41.3868 219.216C41.2535 219.136 41.0721 219.048 40.8428 218.952L40.1628 218.664C39.9868 218.589 39.8188 218.491 39.6588 218.368C39.4988 218.24 39.3681 218.083 39.2668 217.896C39.1655 217.709 39.1148 217.491 39.1148 217.24C39.1148 216.952 39.1921 216.691 39.3468 216.456C39.5068 216.221 39.7255 216.035 40.0028 215.896C40.2855 215.757 40.6081 215.688 40.9708 215.688C41.2695 215.688 41.5681 215.747 41.8668 215.864C42.1655 215.981 42.4268 216.152 42.6508 216.376L42.0508 217.12C41.8801 216.987 41.7095 216.885 41.5388 216.816C41.3681 216.741 41.1788 216.704 40.9708 216.704C40.7681 216.704 40.6055 216.747 40.4828 216.832C40.3655 216.912 40.3068 217.027 40.3068 217.176C40.3068 217.336 40.3815 217.456 40.5308 217.536C40.6855 217.616 40.8748 217.701 41.0988 217.792L41.7708 218.064C42.0855 218.192 42.3361 218.368 42.5228 218.592C42.7095 218.816 42.8028 219.112 42.8028 219.48C42.8028 219.768 42.7255 220.035 42.5708 220.28C42.4161 220.525 42.1921 220.723 41.8988 220.872C41.6055 221.021 41.2508 221.096 40.8348 221.096Z" fill="#595959"/>
<path d="M44.8936 221.096C44.4029 221.096 44.0509 220.955 43.8376 220.672C43.6296 220.389 43.5256 220.019 43.5256 219.56V217.952H42.9816V217.08L43.5896 217.032L43.7256 215.976H44.7016V217.032H45.6536V217.952H44.7016V219.544C44.7016 219.768 44.7469 219.931 44.8376 220.032C44.9336 220.128 45.0589 220.176 45.2136 220.176C45.2776 220.176 45.3416 220.168 45.4056 220.152C45.4749 220.136 45.5362 220.117 45.5896 220.096L45.7736 220.952C45.6722 220.984 45.5469 221.016 45.3976 221.048C45.2536 221.08 45.0856 221.096 44.8936 221.096Z" fill="#595959"/>
<path d="M47.9914 221.096C47.6554 221.096 47.3381 221.016 47.0394 220.856C46.7461 220.691 46.5088 220.453 46.3274 220.144C46.1461 219.829 46.0554 219.453 46.0554 219.016C46.0554 218.573 46.1461 218.197 46.3274 217.888C46.5088 217.579 46.7461 217.344 47.0394 217.184C47.3381 217.019 47.6554 216.936 47.9914 216.936C48.3274 216.936 48.6421 217.019 48.9354 217.184C49.2288 217.344 49.4661 217.579 49.6474 217.888C49.8288 218.197 49.9194 218.573 49.9194 219.016C49.9194 219.453 49.8288 219.829 49.6474 220.144C49.4661 220.453 49.2288 220.691 48.9354 220.856C48.6421 221.016 48.3274 221.096 47.9914 221.096ZM47.9914 220.144C48.2314 220.144 48.4128 220.043 48.5354 219.84C48.6581 219.632 48.7194 219.357 48.7194 219.016C48.7194 218.669 48.6581 218.395 48.5354 218.192C48.4128 217.989 48.2314 217.888 47.9914 217.888C47.7461 217.888 47.5621 217.989 47.4394 218.192C47.3221 218.395 47.2634 218.669 47.2634 219.016C47.2634 219.357 47.3221 219.632 47.4394 219.84C47.5621 220.043 47.7461 220.144 47.9914 220.144Z" fill="#595959"/>
<path d="M50.7249 221V217.032H51.6849L51.7649 217.728H51.7969C51.9409 217.461 52.1143 217.264 52.3169 217.136C52.5196 217.003 52.7223 216.936 52.9249 216.936C53.0369 216.936 53.1303 216.944 53.2049 216.96C53.2796 216.971 53.3436 216.989 53.3969 217.016L53.2049 218.032C53.1356 218.011 53.0663 217.995 52.9969 217.984C52.9329 217.973 52.8583 217.968 52.7729 217.968C52.6236 217.968 52.4663 218.024 52.3009 218.136C52.1409 218.243 52.0076 218.429 51.9009 218.696V221H50.7249Z" fill="#595959"/>
<path d="M55.6103 221.096C55.2316 221.096 54.8903 221.013 54.5863 220.848C54.2823 220.683 54.0423 220.445 53.8663 220.136C53.6903 219.827 53.6023 219.453 53.6023 219.016C53.6023 218.584 53.6903 218.213 53.8663 217.904C54.0476 217.595 54.2823 217.357 54.5703 217.192C54.8583 217.021 55.1596 216.936 55.4743 216.936C55.853 216.936 56.165 217.021 56.4103 217.192C56.661 217.357 56.8476 217.584 56.9703 217.872C57.0983 218.155 57.1623 218.477 57.1623 218.84C57.1623 218.941 57.157 219.043 57.1463 219.144C57.1356 219.24 57.125 219.312 57.1143 219.36H54.7383C54.7916 219.648 54.9116 219.861 55.0983 220C55.285 220.133 55.509 220.2 55.7703 220.2C56.053 220.2 56.3383 220.112 56.6263 219.936L57.0183 220.648C56.8156 220.787 56.589 220.896 56.3383 220.976C56.0876 221.056 55.845 221.096 55.6103 221.096ZM54.7303 218.584H56.1623C56.1623 218.365 56.109 218.187 56.0023 218.048C55.901 217.904 55.733 217.832 55.4983 217.832C55.317 217.832 55.1543 217.896 55.0103 218.024C54.8663 218.147 54.773 218.333 54.7303 218.584Z" fill="#595959"/>
<path d="M59.6165 221V220.048H60.7205V217.112H59.7685V216.384C60.0458 216.331 60.2805 216.267 60.4725 216.192C60.6645 216.117 60.8512 216.027 61.0325 215.92H61.8965V220.048H62.8485V221H59.6165Z" fill="#595959"/>
<path d="M86.831 221.096C86.4897 221.096 86.1483 221.032 85.807 220.904C85.471 220.776 85.1697 220.589 84.903 220.344L85.575 219.536C85.7617 219.696 85.9697 219.827 86.199 219.928C86.4283 220.029 86.6497 220.08 86.863 220.08C87.1083 220.08 87.2897 220.035 87.407 219.944C87.5297 219.853 87.591 219.731 87.591 219.576C87.591 219.411 87.5217 219.291 87.383 219.216C87.2497 219.136 87.0683 219.048 86.839 218.952L86.159 218.664C85.983 218.589 85.815 218.491 85.655 218.368C85.495 218.24 85.3643 218.083 85.263 217.896C85.1617 217.709 85.111 217.491 85.111 217.24C85.111 216.952 85.1883 216.691 85.343 216.456C85.503 216.221 85.7217 216.035 85.999 215.896C86.2817 215.757 86.6043 215.688 86.967 215.688C87.2657 215.688 87.5643 215.747 87.863 215.864C88.1617 215.981 88.423 216.152 88.647 216.376L88.047 217.12C87.8763 216.987 87.7057 216.885 87.535 216.816C87.3643 216.741 87.175 216.704 86.967 216.704C86.7643 216.704 86.6017 216.747 86.479 216.832C86.3617 216.912 86.303 217.027 86.303 217.176C86.303 217.336 86.3777 217.456 86.527 217.536C86.6817 217.616 86.871 217.701 87.095 217.792L87.767 218.064C88.0817 218.192 88.3323 218.368 88.519 218.592C88.7057 218.816 88.799 219.112 88.799 219.48C88.799 219.768 88.7217 220.035 88.567 220.28C88.4123 220.525 88.1883 220.723 87.895 220.872C87.6017 221.021 87.247 221.096 86.831 221.096Z" fill="#595959"/>
<path d="M90.8898 221.096C90.3991 221.096 90.0471 220.955 89.8338 220.672C89.6258 220.389 89.5218 220.019 89.5218 219.56V217.952H88.9778V217.08L89.5858 217.032L89.7218 215.976H90.6978V217.032H91.6498V217.952H90.6978V219.544C90.6978 219.768 90.7431 219.931 90.8338 220.032C90.9298 220.128 91.0551 220.176 91.2098 220.176C91.2738 220.176 91.3378 220.168 91.4018 220.152C91.4711 220.136 91.5324 220.117 91.5858 220.096L91.7698 220.952C91.6684 220.984 91.5431 221.016 91.3938 221.048C91.2498 221.08 91.0818 221.096 90.8898 221.096Z" fill="#595959"/>
<path d="M93.9876 221.096C93.6516 221.096 93.3343 221.016 93.0356 220.856C92.7423 220.691 92.505 220.453 92.3236 220.144C92.1423 219.829 92.0516 219.453 92.0516 219.016C92.0516 218.573 92.1423 218.197 92.3236 217.888C92.505 217.579 92.7423 217.344 93.0356 217.184C93.3343 217.019 93.6516 216.936 93.9876 216.936C94.3236 216.936 94.6383 217.019 94.9316 217.184C95.225 217.344 95.4623 217.579 95.6436 217.888C95.825 218.197 95.9156 218.573 95.9156 219.016C95.9156 219.453 95.825 219.829 95.6436 220.144C95.4623 220.453 95.225 220.691 94.9316 220.856C94.6383 221.016 94.3236 221.096 93.9876 221.096ZM93.9876 220.144C94.2276 220.144 94.409 220.043 94.5316 219.84C94.6543 219.632 94.7156 219.357 94.7156 219.016C94.7156 218.669 94.6543 218.395 94.5316 218.192C94.409 217.989 94.2276 217.888 93.9876 217.888C93.7423 217.888 93.5583 217.989 93.4356 218.192C93.3183 218.395 93.2596 218.669 93.2596 219.016C93.2596 219.357 93.3183 219.632 93.4356 219.84C93.5583 220.043 93.7423 220.144 93.9876 220.144Z" fill="#595959"/>
<path d="M96.7211 221V217.032H97.6811L97.7611 217.728H97.7931C97.9371 217.461 98.1105 217.264 98.3131 217.136C98.5158 217.003 98.7185 216.936 98.9211 216.936C99.0331 216.936 99.1265 216.944 99.2011 216.96C99.2758 216.971 99.3398 216.989 99.3931 217.016L99.2011 218.032C99.1318 218.011 99.0625 217.995 98.9931 217.984C98.9291 217.973 98.8545 217.968 98.7691 217.968C98.6198 217.968 98.4625 218.024 98.2971 218.136C98.1371 218.243 98.0038 218.429 97.8971 218.696V221H96.7211Z" fill="#595959"/>
<path d="M101.607 221.096C101.228 221.096 100.887 221.013 100.583 220.848C100.279 220.683 100.039 220.445 99.8625 220.136C99.6865 219.827 99.5985 219.453 99.5985 219.016C99.5985 218.584 99.6865 218.213 99.8625 217.904C100.044 217.595 100.279 217.357 100.567 217.192C100.855 217.021 101.156 216.936 101.471 216.936C101.849 216.936 102.161 217.021 102.407 217.192C102.657 217.357 102.844 217.584 102.967 217.872C103.095 218.155 103.159 218.477 103.159 218.84C103.159 218.941 103.153 219.043 103.143 219.144C103.132 219.24 103.121 219.312 103.111 219.36H100.735C100.788 219.648 100.908 219.861 101.095 220C101.281 220.133 101.505 220.2 101.767 220.2C102.049 220.2 102.335 220.112 102.623 219.936L103.015 220.648C102.812 220.787 102.585 220.896 102.335 220.976C102.084 221.056 101.841 221.096 101.607 221.096ZM100.727 218.584H102.159C102.159 218.365 102.105 218.187 101.999 218.048C101.897 217.904 101.729 217.832 101.495 217.832C101.313 217.832 101.151 217.896 101.007 218.024C100.863 218.147 100.769 218.333 100.727 218.584Z" fill="#595959"/>
<path d="M105.349 221V220.328C105.781 219.917 106.162 219.547 106.493 219.216C106.829 218.88 107.09 218.573 107.277 218.296C107.463 218.013 107.557 217.752 107.557 217.512C107.557 217.261 107.49 217.072 107.357 216.944C107.229 216.811 107.055 216.744 106.837 216.744C106.655 216.744 106.49 216.797 106.341 216.904C106.197 217.005 106.061 217.125 105.933 217.264L105.293 216.632C105.543 216.365 105.799 216.165 106.061 216.032C106.322 215.893 106.634 215.824 106.997 215.824C107.333 215.824 107.626 215.891 107.877 216.024C108.127 216.157 108.322 216.347 108.461 216.592C108.605 216.832 108.677 217.115 108.677 217.44C108.677 217.723 108.597 218.013 108.437 218.312C108.282 218.605 108.082 218.901 107.837 219.2C107.591 219.493 107.33 219.784 107.053 220.072C107.181 220.056 107.325 220.043 107.485 220.032C107.645 220.016 107.783 220.008 107.901 220.008H108.925V221H105.349Z" fill="#595959"/>
<path d="M132.835 221.096C132.494 221.096 132.152 221.032 131.811 220.904C131.475 220.776 131.174 220.589 130.907 220.344L131.579 219.536C131.766 219.696 131.974 219.827 132.203 219.928C132.432 220.029 132.654 220.08 132.867 220.08C133.112 220.08 133.294 220.035 133.411 219.944C133.534 219.853 133.595 219.731 133.595 219.576C133.595 219.411 133.526 219.291 133.387 219.216C133.254 219.136 133.072 219.048 132.843 218.952L132.163 218.664C131.987 218.589 131.819 218.491 131.659 218.368C131.499 218.24 131.368 218.083 131.267 217.896C131.166 217.709 131.115 217.491 131.115 217.24C131.115 216.952 131.192 216.691 131.347 216.456C131.507 216.221 131.726 216.035 132.003 215.896C132.286 215.757 132.608 215.688 132.971 215.688C133.27 215.688 133.568 215.747 133.867 215.864C134.166 215.981 134.427 216.152 134.651 216.376L134.051 217.12C133.88 216.987 133.71 216.885 133.539 216.816C133.368 216.741 133.179 216.704 132.971 216.704C132.768 216.704 132.606 216.747 132.483 216.832C132.366 216.912 132.307 217.027 132.307 217.176C132.307 217.336 132.382 217.456 132.531 217.536C132.686 217.616 132.875 217.701 133.099 217.792L133.771 218.064C134.086 218.192 134.336 218.368 134.523 218.592C134.71 218.816 134.803 219.112 134.803 219.48C134.803 219.768 134.726 220.035 134.571 220.28C134.416 220.525 134.192 220.723 133.899 220.872C133.606 221.021 133.251 221.096 132.835 221.096Z" fill="#595959"/>
<path d="M136.894 221.096C136.403 221.096 136.051 220.955 135.838 220.672C135.63 220.389 135.526 220.019 135.526 219.56V217.952H134.982V217.08L135.59 217.032L135.726 215.976H136.702V217.032H137.654V217.952H136.702V219.544C136.702 219.768 136.747 219.931 136.838 220.032C136.934 220.128 137.059 220.176 137.214 220.176C137.278 220.176 137.342 220.168 137.406 220.152C137.475 220.136 137.536 220.117 137.59 220.096L137.774 220.952C137.672 220.984 137.547 221.016 137.398 221.048C137.254 221.08 137.086 221.096 136.894 221.096Z" fill="#595959"/>
<path d="M139.992 221.096C139.656 221.096 139.338 221.016 139.04 220.856C138.746 220.691 138.509 220.453 138.328 220.144C138.146 219.829 138.056 219.453 138.056 219.016C138.056 218.573 138.146 218.197 138.328 217.888C138.509 217.579 138.746 217.344 139.04 217.184C139.338 217.019 139.656 216.936 139.992 216.936C140.328 216.936 140.642 217.019 140.936 217.184C141.229 217.344 141.466 217.579 141.648 217.888C141.829 218.197 141.92 218.573 141.92 219.016C141.92 219.453 141.829 219.829 141.648 220.144C141.466 220.453 141.229 220.691 140.936 220.856C140.642 221.016 140.328 221.096 139.992 221.096ZM139.992 220.144C140.232 220.144 140.413 220.043 140.536 219.84C140.658 219.632 140.72 219.357 140.72 219.016C140.72 218.669 140.658 218.395 140.536 218.192C140.413 217.989 140.232 217.888 139.992 217.888C139.746 217.888 139.562 217.989 139.44 218.192C139.322 218.395 139.264 218.669 139.264 219.016C139.264 219.357 139.322 219.632 139.44 219.84C139.562 220.043 139.746 220.144 139.992 220.144Z" fill="#595959"/>
<path d="M142.725 221V217.032H143.685L143.765 217.728H143.797C143.941 217.461 144.114 217.264 144.317 217.136C144.52 217.003 144.722 216.936 144.925 216.936C145.037 216.936 145.13 216.944 145.205 216.96C145.28 216.971 145.344 216.989 145.397 217.016L145.205 218.032C145.136 218.011 145.066 217.995 144.997 217.984C144.933 217.973 144.858 217.968 144.773 217.968C144.624 217.968 144.466 218.024 144.301 218.136C144.141 218.243 144.008 218.429 143.901 218.696V221H142.725Z" fill="#595959"/>
<path d="M147.61 221.096C147.232 221.096 146.89 221.013 146.586 220.848C146.282 220.683 146.042 220.445 145.866 220.136C145.69 219.827 145.602 219.453 145.602 219.016C145.602 218.584 145.69 218.213 145.866 217.904C146.048 217.595 146.282 217.357 146.57 217.192C146.858 217.021 147.16 216.936 147.474 216.936C147.853 216.936 148.165 217.021 148.41 217.192C148.661 217.357 148.848 217.584 148.97 217.872C149.098 218.155 149.162 218.477 149.162 218.84C149.162 218.941 149.157 219.043 149.146 219.144C149.136 219.24 149.125 219.312 149.114 219.36H146.738C146.792 219.648 146.912 219.861 147.098 220C147.285 220.133 147.509 220.2 147.77 220.2C148.053 220.2 148.338 220.112 148.626 219.936L149.018 220.648C148.816 220.787 148.589 220.896 148.338 220.976C148.088 221.056 147.845 221.096 147.61 221.096ZM146.73 218.584H148.162C148.162 218.365 148.109 218.187 148.002 218.048C147.901 217.904 147.733 217.832 147.498 217.832C147.317 217.832 147.154 217.896 147.01 218.024C146.866 218.147 146.773 218.333 146.73 218.584Z" fill="#595959"/>
<path d="M153.001 221.096C152.59 221.096 152.238 221.029 151.945 220.896C151.657 220.763 151.419 220.589 151.233 220.376L151.777 219.632C151.931 219.781 152.102 219.904 152.289 220C152.475 220.096 152.675 220.144 152.889 220.144C153.139 220.144 153.339 220.093 153.489 219.992C153.638 219.885 153.713 219.736 153.713 219.544C153.713 219.395 153.675 219.267 153.601 219.16C153.526 219.048 153.39 218.963 153.193 218.904C152.995 218.845 152.713 218.816 152.345 218.816V217.984C152.803 217.984 153.118 217.923 153.289 217.8C153.459 217.672 153.545 217.507 153.545 217.304C153.545 217.128 153.491 216.992 153.385 216.896C153.278 216.795 153.123 216.744 152.921 216.744C152.739 216.744 152.574 216.784 152.425 216.864C152.281 216.944 152.129 217.053 151.969 217.192L151.377 216.472C151.611 216.269 151.859 216.112 152.121 216C152.382 215.883 152.667 215.824 152.977 215.824C153.499 215.824 153.921 215.947 154.241 216.192C154.566 216.432 154.729 216.773 154.729 217.216C154.729 217.477 154.654 217.701 154.505 217.888C154.361 218.075 154.153 218.227 153.881 218.344V218.376C154.174 218.461 154.414 218.608 154.601 218.816C154.793 219.019 154.889 219.285 154.889 219.616C154.889 219.931 154.801 220.2 154.625 220.424C154.454 220.643 154.225 220.811 153.937 220.928C153.654 221.04 153.342 221.096 153.001 221.096Z" fill="#595959"/>
<path d="M178.834 221.096C178.493 221.096 178.151 221.032 177.81 220.904C177.474 220.776 177.173 220.589 176.906 220.344L177.578 219.536C177.765 219.696 177.973 219.827 178.202 219.928C178.431 220.029 178.653 220.08 178.866 220.08C179.111 220.08 179.293 220.035 179.41 219.944C179.533 219.853 179.594 219.731 179.594 219.576C179.594 219.411 179.525 219.291 179.386 219.216C179.253 219.136 179.071 219.048 178.842 218.952L178.162 218.664C177.986 218.589 177.818 218.491 177.658 218.368C177.498 218.24 177.367 218.083 177.266 217.896C177.165 217.709 177.114 217.491 177.114 217.24C177.114 216.952 177.191 216.691 177.346 216.456C177.506 216.221 177.725 216.035 178.002 215.896C178.285 215.757 178.607 215.688 178.97 215.688C179.269 215.688 179.567 215.747 179.866 215.864C180.165 215.981 180.426 216.152 180.65 216.376L180.05 217.12C179.879 216.987 179.709 216.885 179.538 216.816C179.367 216.741 179.178 216.704 178.97 216.704C178.767 216.704 178.605 216.747 178.482 216.832C178.365 216.912 178.306 217.027 178.306 217.176C178.306 217.336 178.381 217.456 178.53 217.536C178.685 217.616 178.874 217.701 179.098 217.792L179.77 218.064C180.085 218.192 180.335 218.368 180.522 218.592C180.709 218.816 180.802 219.112 180.802 219.48C180.802 219.768 180.725 220.035 180.57 220.28C180.415 220.525 180.191 220.723 179.898 220.872C179.605 221.021 179.25 221.096 178.834 221.096Z" fill="#595959"/>
<path d="M182.893 221.096C182.402 221.096 182.05 220.955 181.837 220.672C181.629 220.389 181.525 220.019 181.525 219.56V217.952H180.981V217.08L181.589 217.032L181.725 215.976H182.701V217.032H183.653V217.952H182.701V219.544C182.701 219.768 182.746 219.931 182.837 220.032C182.933 220.128 183.058 220.176 183.213 220.176C183.277 220.176 183.341 220.168 183.405 220.152C183.474 220.136 183.536 220.117 183.589 220.096L183.773 220.952C183.672 220.984 183.546 221.016 183.397 221.048C183.253 221.08 183.085 221.096 182.893 221.096Z" fill="#595959"/>
<path d="M185.991 221.096C185.655 221.096 185.337 221.016 185.039 220.856C184.745 220.691 184.508 220.453 184.327 220.144C184.145 219.829 184.055 219.453 184.055 219.016C184.055 218.573 184.145 218.197 184.327 217.888C184.508 217.579 184.745 217.344 185.039 217.184C185.337 217.019 185.655 216.936 185.991 216.936C186.327 216.936 186.641 217.019 186.935 217.184C187.228 217.344 187.465 217.579 187.647 217.888C187.828 218.197 187.919 218.573 187.919 219.016C187.919 219.453 187.828 219.829 187.647 220.144C187.465 220.453 187.228 220.691 186.935 220.856C186.641 221.016 186.327 221.096 185.991 221.096ZM185.991 220.144C186.231 220.144 186.412 220.043 186.535 219.84C186.657 219.632 186.719 219.357 186.719 219.016C186.719 218.669 186.657 218.395 186.535 218.192C186.412 217.989 186.231 217.888 185.991 217.888C185.745 217.888 185.561 217.989 185.439 218.192C185.321 218.395 185.263 218.669 185.263 219.016C185.263 219.357 185.321 219.632 185.439 219.84C185.561 220.043 185.745 220.144 185.991 220.144Z" fill="#595959"/>
<path d="M188.724 221V217.032H189.684L189.764 217.728H189.796C189.94 217.461 190.114 217.264 190.316 217.136C190.519 217.003 190.722 216.936 190.924 216.936C191.036 216.936 191.13 216.944 191.204 216.96C191.279 216.971 191.343 216.989 191.396 217.016L191.204 218.032C191.135 218.011 191.066 217.995 190.996 217.984C190.932 217.973 190.858 217.968 190.772 217.968C190.623 217.968 190.466 218.024 190.3 218.136C190.14 218.243 190.007 218.429 189.9 218.696V221H188.724Z" fill="#595959"/>
<path d="M193.61 221.096C193.231 221.096 192.89 221.013 192.586 220.848C192.282 220.683 192.042 220.445 191.866 220.136C191.69 219.827 191.602 219.453 191.602 219.016C191.602 218.584 191.69 218.213 191.866 217.904C192.047 217.595 192.282 217.357 192.57 217.192C192.858 217.021 193.159 216.936 193.474 216.936C193.852 216.936 194.164 217.021 194.41 217.192C194.66 217.357 194.847 217.584 194.97 217.872C195.098 218.155 195.162 218.477 195.162 218.84C195.162 218.941 195.156 219.043 195.146 219.144C195.135 219.24 195.124 219.312 195.114 219.36H192.738C192.791 219.648 192.911 219.861 193.098 220C193.284 220.133 193.508 220.2 193.77 220.2C194.052 220.2 194.338 220.112 194.626 219.936L195.018 220.648C194.815 220.787 194.588 220.896 194.338 220.976C194.087 221.056 193.844 221.096 193.61 221.096ZM192.73 218.584H194.162C194.162 218.365 194.108 218.187 194.002 218.048C193.9 217.904 193.732 217.832 193.498 217.832C193.316 217.832 193.154 217.896 193.01 218.024C192.866 218.147 192.772 218.333 192.73 218.584Z" fill="#595959"/>
<path d="M198.336 218.888H199.408V218.064C199.408 217.899 199.413 217.709 199.424 217.496C199.44 217.277 199.45 217.088 199.456 216.928H199.424C199.36 217.067 199.293 217.208 199.224 217.352C199.154 217.496 199.082 217.64 199.008 217.784L198.336 218.888ZM199.408 221V219.784H197.208V218.976L199.064 215.92H200.504V218.888H201.088V219.784H200.504V221H199.408Z" fill="#595959"/>
<path d="M224.834 221.096C224.493 221.096 224.152 221.032 223.81 220.904C223.474 220.776 223.173 220.589 222.906 220.344L223.578 219.536C223.765 219.696 223.973 219.827 224.202 219.928C224.432 220.029 224.653 220.08 224.866 220.08C225.112 220.08 225.293 220.035 225.41 219.944C225.533 219.853 225.594 219.731 225.594 219.576C225.594 219.411 225.525 219.291 225.386 219.216C225.253 219.136 225.072 219.048 224.842 218.952L224.162 218.664C223.986 218.589 223.818 218.491 223.658 218.368C223.498 218.24 223.368 218.083 223.266 217.896C223.165 217.709 223.114 217.491 223.114 217.24C223.114 216.952 223.192 216.691 223.346 216.456C223.506 216.221 223.725 216.035 224.002 215.896C224.285 215.757 224.608 215.688 224.97 215.688C225.269 215.688 225.568 215.747 225.866 215.864C226.165 215.981 226.426 216.152 226.65 216.376L226.05 217.12C225.88 216.987 225.709 216.885 225.538 216.816C225.368 216.741 225.178 216.704 224.97 216.704C224.768 216.704 224.605 216.747 224.482 216.832C224.365 216.912 224.306 217.027 224.306 217.176C224.306 217.336 224.381 217.456 224.53 217.536C224.685 217.616 224.874 217.701 225.098 217.792L225.77 218.064C226.085 218.192 226.336 218.368 226.522 218.592C226.709 218.816 226.802 219.112 226.802 219.48C226.802 219.768 226.725 220.035 226.57 220.28C226.416 220.525 226.192 220.723 225.898 220.872C225.605 221.021 225.25 221.096 224.834 221.096Z" fill="#595959"/>
<path d="M228.893 221.096C228.402 221.096 228.05 220.955 227.837 220.672C227.629 220.389 227.525 220.019 227.525 219.56V217.952H226.981V217.08L227.589 217.032L227.725 215.976H228.701V217.032H229.653V217.952H228.701V219.544C228.701 219.768 228.746 219.931 228.837 220.032C228.933 220.128 229.058 220.176 229.213 220.176C229.277 220.176 229.341 220.168 229.405 220.152C229.474 220.136 229.536 220.117 229.589 220.096L229.773 220.952C229.672 220.984 229.546 221.016 229.397 221.048C229.253 221.08 229.085 221.096 228.893 221.096Z" fill="#595959"/>
<path d="M231.991 221.096C231.655 221.096 231.338 221.016 231.039 220.856C230.746 220.691 230.508 220.453 230.327 220.144C230.146 219.829 230.055 219.453 230.055 219.016C230.055 218.573 230.146 218.197 230.327 217.888C230.508 217.579 230.746 217.344 231.039 217.184C231.338 217.019 231.655 216.936 231.991 216.936C232.327 216.936 232.642 217.019 232.935 217.184C233.228 217.344 233.466 217.579 233.647 217.888C233.828 218.197 233.919 218.573 233.919 219.016C233.919 219.453 233.828 219.829 233.647 220.144C233.466 220.453 233.228 220.691 232.935 220.856C232.642 221.016 232.327 221.096 231.991 221.096ZM231.991 220.144C232.231 220.144 232.412 220.043 232.535 219.84C232.658 219.632 232.719 219.357 232.719 219.016C232.719 218.669 232.658 218.395 232.535 218.192C232.412 217.989 232.231 217.888 231.991 217.888C231.746 217.888 231.562 217.989 231.439 218.192C231.322 218.395 231.263 218.669 231.263 219.016C231.263 219.357 231.322 219.632 231.439 219.84C231.562 220.043 231.746 220.144 231.991 220.144Z" fill="#595959"/>
<path d="M234.724 221V217.032H235.684L235.764 217.728H235.796C235.94 217.461 236.114 217.264 236.316 217.136C236.519 217.003 236.722 216.936 236.924 216.936C237.036 216.936 237.13 216.944 237.204 216.96C237.279 216.971 237.343 216.989 237.396 217.016L237.204 218.032C237.135 218.011 237.066 217.995 236.996 217.984C236.932 217.973 236.858 217.968 236.772 217.968C236.623 217.968 236.466 218.024 236.3 218.136C236.14 218.243 236.007 218.429 235.9 218.696V221H234.724Z" fill="#595959"/>
<path d="M239.61 221.096C239.231 221.096 238.89 221.013 238.586 220.848C238.282 220.683 238.042 220.445 237.866 220.136C237.69 219.827 237.602 219.453 237.602 219.016C237.602 218.584 237.69 218.213 237.866 217.904C238.047 217.595 238.282 217.357 238.57 217.192C238.858 217.021 239.159 216.936 239.474 216.936C239.852 216.936 240.164 217.021 240.41 217.192C240.66 217.357 240.847 217.584 240.97 217.872C241.098 218.155 241.162 218.477 241.162 218.84C241.162 218.941 241.156 219.043 241.146 219.144C241.135 219.24 241.124 219.312 241.114 219.36H238.738C238.791 219.648 238.911 219.861 239.098 220C239.284 220.133 239.508 220.2 239.77 220.2C240.052 220.2 240.338 220.112 240.626 219.936L241.018 220.648C240.815 220.787 240.588 220.896 240.338 220.976C240.087 221.056 239.844 221.096 239.61 221.096ZM238.73 218.584H240.162C240.162 218.365 240.108 218.187 240.002 218.048C239.9 217.904 239.732 217.832 239.498 217.832C239.316 217.832 239.154 217.896 239.01 218.024C238.866 218.147 238.772 218.333 238.73 218.584Z" fill="#595959"/>
<path d="M245.032 221.096C244.616 221.096 244.264 221.027 243.976 220.888C243.688 220.749 243.443 220.581 243.24 220.384L243.768 219.64C243.923 219.779 244.091 219.899 244.272 220C244.453 220.096 244.651 220.144 244.864 220.144C245.125 220.144 245.333 220.077 245.488 219.944C245.643 219.811 245.72 219.613 245.72 219.352C245.72 219.096 245.645 218.901 245.496 218.768C245.347 218.635 245.155 218.568 244.92 218.568C244.771 218.568 244.645 218.587 244.544 218.624C244.448 218.661 244.323 218.728 244.168 218.824L243.64 218.488L243.784 215.92H246.664V216.912H244.8L244.712 217.864C244.888 217.784 245.077 217.744 245.28 217.744C245.573 217.744 245.84 217.8 246.08 217.912C246.325 218.024 246.523 218.197 246.672 218.432C246.821 218.661 246.896 218.957 246.896 219.32C246.896 219.693 246.808 220.013 246.632 220.28C246.461 220.547 246.235 220.749 245.952 220.888C245.669 221.027 245.363 221.096 245.032 221.096Z" fill="#595959"/>
<path d="M270.835 221.096C270.493 221.096 270.152 221.032 269.81 220.904C269.474 220.776 269.173 220.589 268.906 220.344L269.578 219.536C269.765 219.696 269.973 219.827 270.202 219.928C270.432 220.029 270.653 220.08 270.866 220.08C271.112 220.08 271.293 220.035 271.41 219.944C271.533 219.853 271.594 219.731 271.594 219.576C271.594 219.411 271.525 219.291 271.387 219.216C271.253 219.136 271.072 219.048 270.842 218.952L270.163 218.664C269.987 218.589 269.818 218.491 269.658 218.368C269.498 218.24 269.368 218.083 269.266 217.896C269.165 217.709 269.115 217.491 269.115 217.24C269.115 216.952 269.192 216.691 269.346 216.456C269.506 216.221 269.725 216.035 270.003 215.896C270.285 215.757 270.608 215.688 270.97 215.688C271.269 215.688 271.568 215.747 271.866 215.864C272.165 215.981 272.426 216.152 272.65 216.376L272.051 217.12C271.88 216.987 271.709 216.885 271.538 216.816C271.368 216.741 271.178 216.704 270.97 216.704C270.768 216.704 270.605 216.747 270.482 216.832C270.365 216.912 270.306 217.027 270.306 217.176C270.306 217.336 270.381 217.456 270.53 217.536C270.685 217.616 270.874 217.701 271.098 217.792L271.771 218.064C272.085 218.192 272.336 218.368 272.522 218.592C272.709 218.816 272.802 219.112 272.802 219.48C272.802 219.768 272.725 220.035 272.57 220.28C272.416 220.525 272.192 220.723 271.898 220.872C271.605 221.021 271.251 221.096 270.835 221.096Z" fill="#595959"/>
<path d="M274.893 221.096C274.403 221.096 274.051 220.955 273.837 220.672C273.629 220.389 273.525 220.019 273.525 219.56V217.952H272.981V217.08L273.589 217.032L273.725 215.976H274.701V217.032H275.653V217.952H274.701V219.544C274.701 219.768 274.747 219.931 274.837 220.032C274.933 220.128 275.059 220.176 275.213 220.176C275.277 220.176 275.341 220.168 275.405 220.152C275.475 220.136 275.536 220.117 275.589 220.096L275.773 220.952C275.672 220.984 275.547 221.016 275.397 221.048C275.253 221.08 275.085 221.096 274.893 221.096Z" fill="#595959"/>
<path d="M277.991 221.096C277.655 221.096 277.338 221.016 277.039 220.856C276.746 220.691 276.508 220.453 276.327 220.144C276.146 219.829 276.055 219.453 276.055 219.016C276.055 218.573 276.146 218.197 276.327 217.888C276.508 217.579 276.746 217.344 277.039 217.184C277.338 217.019 277.655 216.936 277.991 216.936C278.327 216.936 278.642 217.019 278.935 217.184C279.228 217.344 279.466 217.579 279.647 217.888C279.828 218.197 279.919 218.573 279.919 219.016C279.919 219.453 279.828 219.829 279.647 220.144C279.466 220.453 279.228 220.691 278.935 220.856C278.642 221.016 278.327 221.096 277.991 221.096ZM277.991 220.144C278.231 220.144 278.412 220.043 278.535 219.84C278.658 219.632 278.719 219.357 278.719 219.016C278.719 218.669 278.658 218.395 278.535 218.192C278.412 217.989 278.231 217.888 277.991 217.888C277.746 217.888 277.562 217.989 277.439 218.192C277.322 218.395 277.263 218.669 277.263 219.016C277.263 219.357 277.322 219.632 277.439 219.84C277.562 220.043 277.746 220.144 277.991 220.144Z" fill="#595959"/>
<path d="M280.725 221V217.032H281.685L281.765 217.728H281.797C281.941 217.461 282.114 217.264 282.317 217.136C282.519 217.003 282.722 216.936 282.925 216.936C283.037 216.936 283.13 216.944 283.205 216.96C283.279 216.971 283.343 216.989 283.397 217.016L283.205 218.032C283.135 218.011 283.066 217.995 282.997 217.984C282.933 217.973 282.858 217.968 282.773 217.968C282.623 217.968 282.466 218.024 282.301 218.136C282.141 218.243 282.007 218.429 281.901 218.696V221H280.725Z" fill="#595959"/>
<path d="M285.61 221.096C285.231 221.096 284.89 221.013 284.586 220.848C284.282 220.683 284.042 220.445 283.866 220.136C283.69 219.827 283.602 219.453 283.602 219.016C283.602 218.584 283.69 218.213 283.866 217.904C284.047 217.595 284.282 217.357 284.57 217.192C284.858 217.021 285.159 216.936 285.474 216.936C285.853 216.936 286.165 217.021 286.41 217.192C286.661 217.357 286.847 217.584 286.97 217.872C287.098 218.155 287.162 218.477 287.162 218.84C287.162 218.941 287.157 219.043 287.146 219.144C287.135 219.24 287.125 219.312 287.114 219.36H284.738C284.791 219.648 284.911 219.861 285.098 220C285.285 220.133 285.509 220.2 285.77 220.2C286.053 220.2 286.338 220.112 286.626 219.936L287.018 220.648C286.815 220.787 286.589 220.896 286.338 220.976C286.087 221.056 285.845 221.096 285.61 221.096ZM284.73 218.584H286.162C286.162 218.365 286.109 218.187 286.002 218.048C285.901 217.904 285.733 217.832 285.498 217.832C285.317 217.832 285.154 217.896 285.01 218.024C284.866 218.147 284.773 218.333 284.73 218.584Z" fill="#595959"/>
<path d="M291.256 218.656C291.123 218.656 290.987 218.696 290.848 218.776C290.715 218.851 290.595 218.979 290.488 219.16C290.542 219.56 290.643 219.837 290.792 219.992C290.942 220.141 291.104 220.216 291.28 220.216C291.456 220.216 291.606 220.152 291.728 220.024C291.856 219.891 291.92 219.68 291.92 219.392C291.92 219.125 291.856 218.936 291.728 218.824C291.606 218.712 291.448 218.656 291.256 218.656ZM291.304 221.096C290.979 221.096 290.67 221.011 290.376 220.84C290.083 220.664 289.843 220.392 289.656 220.024C289.475 219.651 289.384 219.168 289.384 218.576C289.384 217.941 289.48 217.421 289.672 217.016C289.87 216.611 290.123 216.312 290.432 216.12C290.747 215.923 291.083 215.824 291.44 215.824C291.776 215.824 292.067 215.885 292.312 216.008C292.558 216.125 292.76 216.267 292.92 216.432L292.304 217.136C292.219 217.04 292.102 216.957 291.952 216.888C291.808 216.813 291.662 216.776 291.512 216.776C291.326 216.776 291.155 216.827 291 216.928C290.846 217.024 290.72 217.189 290.624 217.424C290.534 217.653 290.48 217.965 290.464 218.36C290.598 218.189 290.76 218.059 290.952 217.968C291.15 217.872 291.326 217.824 291.48 217.824C291.918 217.824 292.278 217.952 292.56 218.208C292.848 218.459 292.992 218.853 292.992 219.392C292.992 219.744 292.915 220.048 292.76 220.304C292.606 220.555 292.4 220.749 292.144 220.888C291.893 221.027 291.614 221.096 291.304 221.096Z" fill="#595959"/>
<path d="M50.6833 118H50.3162C47.6562 118 45.4998 120.05 45.4998 122.579V203.421C45.4998 205.95 47.6562 208 50.3162 208H50.6833C53.3433 208 55.4998 205.95 55.4998 203.421V122.579C55.4998 120.05 53.3433 118 50.6833 118Z" fill="#FFE58F"/>
<path d="M96.6838 129H96.3168C93.6568 129 91.5003 131.037 91.5003 133.551V202.949C91.5003 205.463 93.6568 207.5 96.3168 207.5H96.6838C99.3439 207.5 101.5 205.463 101.5 202.949V133.551C101.5 131.037 99.3439 129 96.6838 129Z" fill="#FAAD14"/>
<path d="M142.683 51.5H142.316C139.656 51.5 137.5 53.5411 137.5 56.059V202.941C137.5 205.459 139.656 207.5 142.316 207.5H142.683C145.343 207.5 147.5 205.459 147.5 202.941V56.059C147.5 53.5411 145.343 51.5 142.683 51.5Z" fill="#AD6800"/>
<path d="M188.683 108H188.316C185.656 108 183.5 110.046 183.5 112.569V202.931C183.5 205.454 185.656 207.5 188.316 207.5H188.683C191.343 207.5 193.5 205.454 193.5 202.931V112.569C193.5 110.046 191.343 108 188.683 108Z" fill="#874D00"/>
<path d="M234.684 91H234.317C231.657 91 229.5 93.038 229.5 95.5521V202.948C229.5 205.462 231.657 207.5 234.317 207.5H234.684C237.344 207.5 239.5 205.462 239.5 202.948V95.5521C239.5 93.038 237.344 91 234.684 91Z" fill="#613400"/>
<path d="M280.684 132.5H280.317C277.656 132.5 275.5 134.53 275.5 137.034V202.966C275.5 205.47 277.656 207.5 280.317 207.5H280.684C283.344 207.5 285.5 205.47 285.5 202.966V137.034C285.5 134.53 283.344 132.5 280.684 132.5Z" fill="#FFC53D"/>
<path d="M14.499 210.096C13.955 210.096 13.515 209.869 13.179 209.416C12.8483 208.963 12.683 208.304 12.683 207.44C12.683 206.576 12.8483 205.925 13.179 205.488C13.515 205.045 13.955 204.824 14.499 204.824C15.043 204.824 15.4803 205.045 15.811 205.488C16.147 205.925 16.315 206.576 16.315 207.44C16.315 208.304 16.147 208.963 15.811 209.416C15.4803 209.869 15.043 210.096 14.499 210.096ZM14.499 209.184C14.6323 209.184 14.7523 209.136 14.859 209.04C14.9656 208.939 15.0483 208.763 15.107 208.512C15.171 208.261 15.203 207.904 15.203 207.44C15.203 206.976 15.171 206.621 15.107 206.376C15.0483 206.131 14.9656 205.963 14.859 205.872C14.7523 205.781 14.6323 205.736 14.499 205.736C14.371 205.736 14.2536 205.781 14.147 205.872C14.0403 205.963 13.955 206.131 13.891 206.376C13.827 206.621 13.795 206.976 13.795 207.44C13.795 207.904 13.827 208.261 13.891 208.512C13.955 208.763 14.0403 208.939 14.147 209.04C14.2536 209.136 14.371 209.184 14.499 209.184Z" fill="#595959"/>
<path d="M11.5455 162C11.5775 161.435 11.6388 160.928 11.7295 160.48C11.8201 160.032 11.9588 159.603 12.1455 159.192C12.3321 158.781 12.5855 158.355 12.9055 157.912H10.6255V156.92H14.1615V157.64C13.8681 157.997 13.6308 158.333 13.4495 158.648C13.2735 158.963 13.1348 159.285 13.0335 159.616C12.9375 159.941 12.8681 160.296 12.8255 160.68C12.7828 161.064 12.7508 161.504 12.7295 162H11.5455Z" fill="#595959"/>
<path d="M16.476 162.096C16.06 162.096 15.708 162.027 15.42 161.888C15.132 161.749 14.8867 161.581 14.684 161.384L15.212 160.64C15.3667 160.779 15.5347 160.899 15.716 161C15.8974 161.096 16.0947 161.144 16.308 161.144C16.5694 161.144 16.7774 161.077 16.932 160.944C17.0867 160.811 17.164 160.613 17.164 160.352C17.164 160.096 17.0894 159.901 16.94 159.768C16.7907 159.635 16.5987 159.568 16.364 159.568C16.2147 159.568 16.0894 159.587 15.988 159.624C15.892 159.661 15.7667 159.728 15.612 159.824L15.084 159.488L15.228 156.92H18.108V157.912H16.244L16.156 158.864C16.332 158.784 16.5214 158.744 16.724 158.744C17.0174 158.744 17.284 158.8 17.524 158.912C17.7694 159.024 17.9667 159.197 18.116 159.432C18.2654 159.661 18.34 159.957 18.34 160.32C18.34 160.693 18.252 161.013 18.076 161.28C17.9054 161.547 17.6787 161.749 17.396 161.888C17.1134 162.027 16.8067 162.096 16.476 162.096Z" fill="#595959"/>
<path d="M8.72006 114V113.048H9.82406V110.112H8.87206V109.384C9.14939 109.331 9.38406 109.267 9.57606 109.192C9.76806 109.117 9.95472 109.027 10.1361 108.92H11.0001V113.048H11.9521V114H8.72006Z" fill="#595959"/>
<path d="M14.3626 114.096C13.9466 114.096 13.5946 114.027 13.3066 113.888C13.0186 113.749 12.7733 113.581 12.5706 113.384L13.0986 112.64C13.2533 112.779 13.4213 112.899 13.6026 113C13.784 113.096 13.9813 113.144 14.1946 113.144C14.456 113.144 14.664 113.077 14.8186 112.944C14.9733 112.811 15.0506 112.613 15.0506 112.352C15.0506 112.096 14.976 111.901 14.8266 111.768C14.6773 111.635 14.4853 111.568 14.2506 111.568C14.1013 111.568 13.976 111.587 13.8746 111.624C13.7786 111.661 13.6533 111.728 13.4986 111.824L12.9706 111.488L13.1146 108.92H15.9946V109.912H14.1306L14.0426 110.864C14.2186 110.784 14.408 110.744 14.6106 110.744C14.904 110.744 15.1706 110.8 15.4106 110.912C15.656 111.024 15.8533 111.197 16.0026 111.432C16.152 111.661 16.2266 111.957 16.2266 112.32C16.2266 112.693 16.1386 113.013 15.9626 113.28C15.792 113.547 15.5653 113.749 15.2826 113.888C15 114.027 14.6933 114.096 14.3626 114.096Z" fill="#595959"/>
<path d="M18.7252 114.096C18.1812 114.096 17.7412 113.869 17.4052 113.416C17.0745 112.963 16.9092 112.304 16.9092 111.44C16.9092 110.576 17.0745 109.925 17.4052 109.488C17.7412 109.045 18.1812 108.824 18.7252 108.824C19.2692 108.824 19.7065 109.045 20.0372 109.488C20.3732 109.925 20.5412 110.576 20.5412 111.44C20.5412 112.304 20.3732 112.963 20.0372 113.416C19.7065 113.869 19.2692 114.096 18.7252 114.096ZM18.7252 113.184C18.8585 113.184 18.9785 113.136 19.0852 113.04C19.1918 112.939 19.2745 112.763 19.3332 112.512C19.3972 112.261 19.4292 111.904 19.4292 111.44C19.4292 110.976 19.3972 110.621 19.3332 110.376C19.2745 110.131 19.1918 109.963 19.0852 109.872C18.9785 109.781 18.8585 109.736 18.7252 109.736C18.5972 109.736 18.4798 109.781 18.3732 109.872C18.2665 109.963 18.1812 110.131 18.1172 110.376C18.0532 110.621 18.0212 110.976 18.0212 111.44C18.0212 111.904 18.0532 112.261 18.1172 112.512C18.1812 112.763 18.2665 112.939 18.3732 113.04C18.4798 113.136 18.5972 113.184 18.7252 113.184Z" fill="#595959"/>
<path d="M8.45606 66V65.328C8.88806 64.9173 9.26939 64.5467 9.60006 64.216C9.93606 63.88 10.1974 63.5733 10.3841 63.296C10.5707 63.0133 10.6641 62.752 10.6641 62.512C10.6641 62.2613 10.5974 62.072 10.4641 61.944C10.3361 61.8107 10.1627 61.744 9.94406 61.744C9.76273 61.744 9.59739 61.7973 9.44806 61.904C9.30406 62.0053 9.16806 62.1253 9.04006 62.264L8.40006 61.632C8.65072 61.3653 8.90673 61.1653 9.16806 61.032C9.42939 60.8933 9.74139 60.824 10.1041 60.824C10.4401 60.824 10.7334 60.8907 10.9841 61.024C11.2347 61.1573 11.4294 61.3467 11.5681 61.592C11.7121 61.832 11.7841 62.1147 11.7841 62.44C11.7841 62.7227 11.7041 63.0133 11.5441 63.312C11.3894 63.6053 11.1894 63.9013 10.9441 64.2C10.6987 64.4933 10.4374 64.784 10.1601 65.072C10.2881 65.056 10.4321 65.0427 10.5921 65.032C10.7521 65.016 10.8907 65.008 11.0081 65.008H12.0321V66H8.45606Z" fill="#595959"/>
<path d="M12.6826 66V65.328C13.1146 64.9173 13.496 64.5467 13.8266 64.216C14.1626 63.88 14.424 63.5733 14.6106 63.296C14.7973 63.0133 14.8906 62.752 14.8906 62.512C14.8906 62.2613 14.824 62.072 14.6906 61.944C14.5626 61.8107 14.3893 61.744 14.1706 61.744C13.9893 61.744 13.824 61.7973 13.6746 61.904C13.5306 62.0053 13.3946 62.1253 13.2666 62.264L12.6266 61.632C12.8773 61.3653 13.1333 61.1653 13.3946 61.032C13.656 60.8933 13.968 60.824 14.3306 60.824C14.6666 60.824 14.96 60.8907 15.2106 61.024C15.4613 61.1573 15.656 61.3467 15.7946 61.592C15.9386 61.832 16.0106 62.1147 16.0106 62.44C16.0106 62.7227 15.9306 63.0133 15.7706 63.312C15.616 63.6053 15.416 63.9013 15.1706 64.2C14.9253 64.4933 14.664 64.784 14.3866 65.072C14.5146 65.056 14.6586 65.0427 14.8186 65.032C14.9786 65.016 15.1173 65.008 15.2346 65.008H16.2586V66H12.6826Z" fill="#595959"/>
<path d="M18.5892 66.096C18.1732 66.096 17.8212 66.0267 17.5332 65.888C17.2452 65.7493 16.9999 65.5813 16.7972 65.384L17.3252 64.64C17.4799 64.7787 17.6479 64.8987 17.8292 65C18.0105 65.096 18.2078 65.144 18.4212 65.144C18.6825 65.144 18.8905 65.0773 19.0452 64.944C19.1998 64.8107 19.2772 64.6133 19.2772 64.352C19.2772 64.096 19.2025 63.9013 19.0532 63.768C18.9038 63.6347 18.7118 63.568 18.4772 63.568C18.3278 63.568 18.2025 63.5867 18.1012 63.624C18.0052 63.6613 17.8799 63.728 17.7252 63.824L17.1972 63.488L17.3412 60.92H20.2212V61.912H18.3572L18.2692 62.864C18.4452 62.784 18.6345 62.744 18.8372 62.744C19.1305 62.744 19.3972 62.8 19.6372 62.912C19.8825 63.024 20.0798 63.1973 20.2292 63.432C20.3785 63.6613 20.4532 63.9573 20.4532 64.32C20.4532 64.6933 20.3652 65.0133 20.1892 65.28C20.0185 65.5467 19.7919 65.7493 19.5092 65.888C19.2265 66.0267 18.9199 66.096 18.5892 66.096Z" fill="#595959"/>
<path d="M10.1041 18.096C9.69339 18.096 9.34139 18.0293 9.04806 17.896C8.76006 17.7627 8.52272 17.5893 8.33606 17.376L8.88006 16.632C9.03472 16.7813 9.20539 16.904 9.39206 17C9.57873 17.096 9.77872 17.144 9.99206 17.144C10.2427 17.144 10.4427 17.0933 10.5921 16.992C10.7414 16.8853 10.8161 16.736 10.8161 16.544C10.8161 16.3947 10.7787 16.2667 10.7041 16.16C10.6294 16.048 10.4934 15.9627 10.2961 15.904C10.0987 15.8453 9.81606 15.816 9.44806 15.816V14.984C9.90672 14.984 10.2214 14.9227 10.3921 14.8C10.5627 14.672 10.6481 14.5067 10.6481 14.304C10.6481 14.128 10.5947 13.992 10.4881 13.896C10.3814 13.7947 10.2267 13.744 10.0241 13.744C9.84273 13.744 9.67739 13.784 9.52806 13.864C9.38406 13.944 9.23206 14.0533 9.07206 14.192L8.48006 13.472C8.71472 13.2693 8.96272 13.112 9.22406 13C9.48539 12.8827 9.77072 12.824 10.0801 12.824C10.6027 12.824 11.0241 12.9467 11.3441 13.192C11.6694 13.432 11.8321 13.7733 11.8321 14.216C11.8321 14.4773 11.7574 14.7013 11.6081 14.888C11.4641 15.0747 11.2561 15.2267 10.9841 15.344V15.376C11.2774 15.4613 11.5174 15.608 11.7041 15.816C11.8961 16.0187 11.9921 16.2853 11.9921 16.616C11.9921 16.9307 11.9041 17.2 11.7281 17.424C11.5574 17.6427 11.3281 17.8107 11.0401 17.928C10.7574 18.04 10.4454 18.096 10.1041 18.096Z" fill="#595959"/>
<path d="M14.4986 18.096C13.9546 18.096 13.5146 17.8693 13.1786 17.416C12.848 16.9627 12.6826 16.304 12.6826 15.44C12.6826 14.576 12.848 13.9253 13.1786 13.488C13.5146 13.0453 13.9546 12.824 14.4986 12.824C15.0426 12.824 15.48 13.0453 15.8106 13.488C16.1466 13.9253 16.3146 14.576 16.3146 15.44C16.3146 16.304 16.1466 16.9627 15.8106 17.416C15.48 17.8693 15.0426 18.096 14.4986 18.096ZM14.4986 17.184C14.632 17.184 14.752 17.136 14.8586 17.04C14.9653 16.9387 15.048 16.7627 15.1066 16.512C15.1706 16.2613 15.2026 15.904 15.2026 15.44C15.2026 14.976 15.1706 14.6213 15.1066 14.376C15.048 14.1307 14.9653 13.9627 14.8586 13.872C14.752 13.7813 14.632 13.736 14.4986 13.736C14.3706 13.736 14.2533 13.7813 14.1466 13.872C14.04 13.9627 13.9546 14.1307 13.8906 14.376C13.8266 14.6213 13.7946 14.976 13.7946 15.44C13.7946 15.904 13.8266 16.2613 13.8906 16.512C13.9546 16.7627 14.04 16.9387 14.1466 17.04C14.2533 17.136 14.3706 17.184 14.4986 17.184Z" fill="#595959"/>
<path d="M18.7252 18.096C18.1812 18.096 17.7412 17.8693 17.4052 17.416C17.0745 16.9627 16.9092 16.304 16.9092 15.44C16.9092 14.576 17.0745 13.9253 17.4052 13.488C17.7412 13.0453 18.1812 12.824 18.7252 12.824C19.2692 12.824 19.7065 13.0453 20.0372 13.488C20.3732 13.9253 20.5412 14.576 20.5412 15.44C20.5412 16.304 20.3732 16.9627 20.0372 17.416C19.7065 17.8693 19.2692 18.096 18.7252 18.096ZM18.7252 17.184C18.8585 17.184 18.9785 17.136 19.0852 17.04C19.1918 16.9387 19.2745 16.7627 19.3332 16.512C19.3972 16.2613 19.4292 15.904 19.4292 15.44C19.4292 14.976 19.3972 14.6213 19.3332 14.376C19.2745 14.1307 19.1918 13.9627 19.0852 13.872C18.9785 13.7813 18.8585 13.736 18.7252 13.736C18.5972 13.736 18.4798 13.7813 18.3732 13.872C18.2665 13.9627 18.1812 14.1307 18.1172 14.376C18.0532 14.6213 18.0212 14.976 18.0212 15.44C18.0212 15.904 18.0532 16.2613 18.1172 16.512C18.1812 16.7627 18.2665 16.9387 18.3732 17.04C18.4798 17.136 18.5972 17.184 18.7252 17.184Z" fill="#595959"/>
</svg>
