<svg width="12" height="13" viewBox="0 0 12 13" fill="none" xmlns="http://www.w3.org/2000/svg">
<path d="M9.33333 5.85H2.66667V7.15H9.33333V5.85ZM10.6667 1.3H10V0H8.66667V1.3H3.33333V0H2V1.3H1.33333C1.15858 1.30009 0.985562 1.33383 0.824212 1.39927C0.662861 1.46472 0.516353 1.56058 0.393093 1.68137C0.269832 1.80215 0.172246 1.94547 0.105933 2.10312C0.0396207 2.26076 0.00588635 2.42962 0.00666654 2.6L0 11.7C0 12.0448 0.140476 12.3754 0.390524 12.6192C0.640573 12.863 0.979711 13 1.33333 13H10.6667C11.02 12.999 11.3586 12.8618 11.6084 12.6182C11.8582 12.3746 11.999 12.0445 12 11.7V2.6C11.999 2.25551 11.8582 1.9254 11.6084 1.68181C11.3586 1.43822 11.02 1.30095 10.6667 1.3ZM10.6667 11.7H1.33333V4.55H10.6667V11.7ZM7.33333 8.45H2.66667V9.75H7.33333V8.45Z" fill="#AD6800"/>
</svg>
