<svg width="16" height="16" viewBox="0 0 16 16" fill="none" xmlns="http://www.w3.org/2000/svg">
<mask id="mask0_1_1100" style="mask-type:alpha" maskUnits="userSpaceOnUse" x="0" y="0" width="16" height="16">
<rect width="16" height="16" fill="#D9D9D9"/>
</mask>
<g mask="url(#mask0_1_1100)">
<path d="M10.4867 2H5.51333L2 5.48253V10.4122L5.51333 13.8948H10.4867L14 10.4122V5.48253L10.4867 2ZM8 11.4497C7.82859 11.4497 7.66103 11.3994 7.51851 11.305C7.37598 11.2106 7.2649 11.0764 7.1993 10.9194C7.13371 10.7624 7.11655 10.5897 7.14999 10.4231C7.18343 10.2564 7.26597 10.1034 7.38717 9.98322C7.50838 9.86307 7.66281 9.78126 7.83092 9.74811C7.99904 9.71496 8.1733 9.73197 8.33166 9.79699C8.49002 9.86202 8.62538 9.97213 8.72061 10.1134C8.81584 10.2547 8.86667 10.4208 8.86667 10.5907C8.86667 10.8185 8.77536 11.037 8.61283 11.1981C8.45029 11.3592 8.22985 11.4497 8 11.4497ZM8.66667 8.60821H7.33333V4.64328H8.66667V8.60821Z" fill="#AD6800"/>
</g>
</svg>
