<svg width="41" height="41" viewBox="0 0 41 41" fill="none" xmlns="http://www.w3.org/2000/svg">
<path d="M36.255 20.4639C35.6228 20.4616 35.0118 20.6916 34.5379 21.1101C34.064 21.5286 33.7602 22.1065 33.684 22.7343C32.7459 26.9343 28.7581 33.3206 20.8306 33.3206C18.9514 33.3217 17.0954 32.9061 15.396 32.1038L16.7517 30.749C17.6742 29.8646 18.2585 29.3223 18.2585 28.1775C18.2501 27.498 17.9765 26.8488 17.4962 26.3684C17.0158 25.8879 16.3668 25.6143 15.6875 25.6059H7.97716C7.6387 25.6028 7.30302 25.6673 6.98972 25.7954C6.67643 25.9236 6.3918 26.1129 6.15246 26.3523C5.91312 26.5917 5.72386 26.8764 5.59574 27.1898C5.46761 27.5031 5.40319 27.8389 5.40623 28.1775V35.8922C5.40432 36.2305 5.46952 36.5657 5.59804 36.8786C5.72657 37.1915 5.91587 37.4757 6.15498 37.7149C6.3941 37.9541 6.67827 38.1434 6.99106 38.272C7.30384 38.4005 7.63901 38.4657 7.97716 38.4638C9.22124 38.4638 9.7455 37.7618 10.5481 36.9362L11.5966 35.8898C14.3818 37.5752 17.5754 38.4654 20.8306 38.4638C33.6588 38.4638 38.8259 26.2491 38.8259 23.1951C38.8493 22.8438 38.8001 22.4915 38.6813 22.1601C38.5625 21.8288 38.3766 21.5255 38.1354 21.2692C37.8941 21.0129 37.6026 20.8091 37.2791 20.6705C36.9555 20.532 36.6069 20.4616 36.255 20.4639ZM7.97716 18.1935C8.91532 13.9971 12.9019 7.60711 20.8306 7.60711C22.7098 7.60609 24.5658 8.02165 26.2652 8.82391L24.9095 10.1787C23.987 11.0631 23.4027 11.6055 23.4027 12.7503C23.4111 13.4297 23.6847 14.0789 24.165 14.5594C24.6454 15.0399 25.2944 15.3135 25.9737 15.3219H33.6864C34.0249 15.3249 34.3606 15.2605 34.6739 15.1323C34.9872 15.0042 35.2718 14.8149 35.5111 14.5755C35.7505 14.3361 35.9397 14.0514 36.0679 13.738C36.196 13.4246 36.2604 13.0888 36.2574 12.7503V5.03552C36.2593 4.69707 36.194 4.36162 36.0653 4.04859C35.9367 3.73557 35.7471 3.45122 35.5078 3.21201C35.2684 2.9728 34.9839 2.7835 34.6709 2.65509C34.3578 2.52667 34.0224 2.46169 33.684 2.46392C32.44 2.46392 31.9157 3.16592 31.1131 3.99152L30.0646 5.03792C27.2794 3.35252 24.0858 2.46232 20.8306 2.46392C8.00236 2.46392 2.83531 14.6787 2.83531 17.7327C2.79982 18.4007 3.02478 19.0565 3.46285 19.562C3.90093 20.0675 4.51795 20.3834 5.1841 20.443C5.85025 20.5027 6.51358 20.3017 7.03451 19.8821C7.55544 19.4625 7.89336 18.8572 7.97716 18.1935Z" fill="#D48806"/>
</svg>
