<svg width="41" height="41" viewBox="0 0 41 41" fill="none" xmlns="http://www.w3.org/2000/svg">
<path d="M20.8326 2.48242C17.2726 2.48242 13.7925 3.5381 10.8324 5.51597C7.8723 7.49383 5.56519 10.305 4.20282 13.5941C2.84044 16.8832 2.48398 20.5024 3.17851 23.994C3.87305 27.4857 5.58738 30.693 8.10473 33.2103C10.6221 35.7277 13.8294 37.442 17.321 38.1366C20.8127 38.8311 24.4319 38.4746 27.7209 37.1122C31.01 35.7499 33.8212 33.4428 35.7991 30.4827C37.777 27.5226 38.8326 24.0425 38.8326 20.4824C38.8326 18.1186 38.3671 15.778 37.4625 13.5941C36.5579 11.4103 35.232 9.42595 33.5606 7.7545C31.8891 6.08304 29.9048 4.75717 27.7209 3.85259C25.5371 2.94801 23.1964 2.48242 20.8326 2.48242ZM22.953 20.4824L27.8922 25.4216C28.1599 25.7055 28.3064 26.0825 28.3006 26.4727C28.2949 26.8628 28.1374 27.2353 27.8615 27.5112C27.5856 27.7871 27.213 27.9447 26.8229 27.9504C26.4328 27.9562 26.0557 27.8097 25.7718 27.542C25.5414 27.314 20.8326 22.6028 20.8326 22.6028L15.8934 27.542C15.6095 27.8097 15.2325 27.9562 14.8424 27.9504C14.4523 27.9447 14.0797 27.7871 13.8038 27.5112C13.5279 27.2353 13.3704 26.8628 13.3647 26.4727C13.3589 26.0825 13.5054 25.7055 13.773 25.4216C14.0022 25.1912 18.7122 20.4824 18.7122 20.4824L13.773 15.5432C13.5054 15.2593 13.3589 14.8823 13.3647 14.4922C13.3704 14.102 13.5279 13.7295 13.8038 13.4536C14.0797 13.1777 14.4523 13.0202 14.8424 13.0144C15.2325 13.0087 15.6095 13.1552 15.8934 13.4228C16.125 13.652 20.8326 18.362 20.8326 18.362L25.7718 13.4228C26.0557 13.1552 26.4328 13.0087 26.8229 13.0144C27.213 13.0202 27.5856 13.1777 27.8615 13.4536C28.1374 13.7295 28.2949 14.102 28.3006 14.4922C28.3064 14.8823 28.1599 15.2593 27.8922 15.5432C27.6642 15.7736 22.953 20.4824 22.953 20.4824Z" fill="#D48806"/>
</svg>
