<svg width="16" height="16" viewBox="0 0 16 16" fill="none" xmlns="http://www.w3.org/2000/svg">
<rect width="16" height="16" fill="white"/>
<path d="M2.66667 8.66667H6.66667C6.84348 8.66667 7.01305 8.59643 7.13807 8.4714C7.2631 8.34638 7.33333 8.17681 7.33333 8V2.66667C7.33333 2.48986 7.2631 2.32029 7.13807 2.19526C7.01305 2.07024 6.84348 2 6.66667 2H2.66667C2.48986 2 2.32029 2.07024 2.19526 2.19526C2.07024 2.32029 2 2.48986 2 2.66667V8C2 8.17681 2.07024 8.34638 2.19526 8.4714C2.32029 8.59643 2.48986 8.66667 2.66667 8.66667ZM2 13.3333C2 13.5101 2.07024 13.6797 2.19526 13.8047C2.32029 13.9298 2.48986 14 2.66667 14H6.66667C6.84348 14 7.01305 13.9298 7.13807 13.8047C7.2631 13.6797 7.33333 13.5101 7.33333 13.3333V10.6667C7.33333 10.4899 7.2631 10.3203 7.13807 10.1953C7.01305 10.0702 6.84348 10 6.66667 10H2.66667C2.48986 10 2.32029 10.0702 2.19526 10.1953C2.07024 10.3203 2 10.4899 2 10.6667V13.3333ZM8.66667 13.3333C8.66667 13.5101 8.7369 13.6797 8.86193 13.8047C8.98695 13.9298 9.15652 14 9.33333 14H13.3333C13.5101 14 13.6797 13.9298 13.8047 13.8047C13.9298 13.6797 14 13.5101 14 13.3333V8.66667C14 8.48986 13.9298 8.32029 13.8047 8.19526C13.6797 8.07024 13.5101 8 13.3333 8H9.33333C9.15652 8 8.98695 8.07024 8.86193 8.19526C8.7369 8.32029 8.66667 8.48986 8.66667 8.66667V13.3333ZM9.33333 6.66667H13.3333C13.5101 6.66667 13.6797 6.59643 13.8047 6.4714C13.9298 6.34638 14 6.17681 14 6V2.66667C14 2.48986 13.9298 2.32029 13.8047 2.19526C13.6797 2.07024 13.5101 2 13.3333 2H9.33333C9.15652 2 8.98695 2.07024 8.86193 2.19526C8.7369 2.32029 8.66667 2.48986 8.66667 2.66667V6C8.66667 6.17681 8.7369 6.34638 8.86193 6.4714C8.98695 6.59643 9.15652 6.66667 9.33333 6.66667Z" fill="#AD6800"/>
</svg>
